<svg xmlns="http://www.w3.org/2000/svg" viewBox="0 0 80 80" fill="none">
  <g transform="rotate(0, 40, 40)">
    <line x1="40" y1="36" x2="40" y2="27" stroke="#000000" stroke-width="1.5" stroke-linecap="round"/>
    <ellipse cx="40" cy="16" rx="7" ry="10" fill="#000000"/>
  </g>
  <g transform="rotate(60, 40, 40)">
    <line x1="40" y1="36" x2="40" y2="27" stroke="#000000" stroke-width="1.5" stroke-linecap="round"/>
    <ellipse cx="40" cy="16" rx="7" ry="10" fill="#000000"/>
  </g>
  <g transform="rotate(120, 40, 40)">
    <line x1="40" y1="36" x2="40" y2="27" stroke="#000000" stroke-width="1.5" stroke-linecap="round"/>
    <ellipse cx="40" cy="16" rx="7" ry="10" fill="#000000"/>
  </g>
  <g transform="rotate(180, 40, 40)">
    <line x1="40" y1="36" x2="40" y2="27" stroke="#000000" stroke-width="1.5" stroke-linecap="round"/>
    <ellipse cx="40" cy="16" rx="7" ry="10" fill="#000000"/>
  </g>
  <g transform="rotate(240, 40, 40)">
    <line x1="40" y1="36" x2="40" y2="27" stroke="#000000" stroke-width="1.5" stroke-linecap="round"/>
    <ellipse cx="40" cy="16" rx="7" ry="10" fill="#000000"/>
  </g>
  <g transform="rotate(300, 40, 40)">
    <line x1="40" y1="36" x2="40" y2="27" stroke="#000000" stroke-width="1.5" stroke-linecap="round"/>
    <ellipse cx="40" cy="16" rx="7" ry="10" fill="#000000"/>
  </g>
  <circle cx="40" cy="40" r="4" fill="#000000"/>
</svg>
